<svg width="487" height="392" viewBox="0 0 487 392" fill="none" xmlns="http://www.w3.org/2000/svg">
<path d="M250.668 0.583984V405.408" stroke="#9F9F9F" stroke-dasharray="4 4"/>
<path d="M500.775 202.996L48.2564 202.996" stroke="url(#paint0_linear_1450_31606)" stroke-dasharray="4 4"/>
<path d="M59.2734 332.75C26.5506 332.75 0.0234375 359.277 0.0234375 392H118.523C118.523 359.277 91.9963 332.75 59.2734 332.75Z" fill="#EA5B0C"/>
<path d="M59.2734 273.5C26.5506 273.5 0.0234375 300.027 0.0234375 332.75H118.523C118.523 300.027 91.9963 273.5 59.2734 273.5Z" fill="#EA5B0C"/>
<path d="M426.461 97.75C426.461 130.473 452.988 157 485.711 157L485.711 38.5C452.988 38.5 426.461 65.0271 426.461 97.75Z" fill="#0C77FA"/>
<circle cx="250.667" cy="194.999" r="134.038" fill="#8241B0"/>
<circle cx="426.461" cy="329.037" r="23.7621" fill="#0066B7"/>
<circle cx="220.722" cy="194.999" r="133.538" stroke="#8241B0" stroke-dasharray="4 4"/>
<circle cx="182.294" cy="194.999" r="133.538" stroke="#8241B0" stroke-dasharray="4 4"/>
<path fill-rule="evenodd" clip-rule="evenodd" d="M244.385 143.348C239.912 142.483 235.347 142.192 230.801 142.481C241.197 145.227 251.107 150.328 258.627 158.149C273.51 173.616 273.259 194.523 253.672 203.747C252.017 204.526 251.688 205.358 253.022 206.778C260.221 215.179 274.931 218.132 288.056 214.096C297.187 211.29 308.189 203.028 310.095 195.043C310.095 194.74 310.095 194.428 310.095 194.134C309.627 186.105 302.731 178.233 297.326 172.733C290.802 166.116 273.164 148.83 244.385 143.348Z" fill="white"/>
<path d="M269.273 220.531C234.126 217.699 243.266 183.187 243.266 183.187C250.301 182.892 260.783 187.413 265.253 189.518C268.909 179.748 265.539 167.866 256.183 158.158C248.759 150.441 238.995 145.374 228.764 142.568C205.564 145.478 205.85 194.662 205.85 194.662C205.806 249.519 230.107 247.657 233.433 247.613C269.273 247.197 310.103 212.243 310.094 195.009C310.094 195.009 300.435 223.026 269.273 220.531Z" fill="white"/>
<defs>
<linearGradient id="paint0_linear_1450_31606" x1="500.775" y1="203.496" x2="48.2563" y2="203.496" gradientUnits="userSpaceOnUse">
<stop stop-color="#C4C4C4"/>
<stop offset="1" stop-color="#C4C4C4" stop-opacity="0"/>
</linearGradient>
</defs>
</svg>
