<svg width="256" height="256" viewBox="0 0 256 256" fill="none" xmlns="http://www.w3.org/2000/svg">
<path d="M41.5725 127.407C41.5725 127.407 41.0887 40.9064 83.0518 40.6807C83.0518 40.6807 168.849 59.2463 143.897 120.672C143.897 120.672 118.964 107.77 103.772 108.415C103.772 108.415 88.5738 165.751 146.993 170.466C198.774 174.646 214.837 128.039 214.837 128.039C214.837 156.687 146.993 214.797 87.4255 215.494C81.9293 215.558 41.5209 218.654 41.579 127.452" fill="#492561"/>
<path fill-rule="evenodd" clip-rule="evenodd" d="M105.588 42.056C99.4466 40.8755 90.1058 40.0433 83.0098 40.7207C100.253 45.2879 116.761 53.7708 129.25 66.7629C153.989 92.4891 153.57 127.201 121.018 142.58C118.27 143.871 117.722 145.257 119.941 147.618C131.908 161.578 156.35 166.487 178.167 159.785C193.346 155.114 211.621 141.38 214.795 128.027C214.795 127.524 214.795 127.014 214.756 126.518C213.969 113.171 202.5 100.069 193.533 90.9474C182.76 79.9486 153.447 51.2163 105.588 42.056Z" fill="#DD591B"/>
</svg>
